<?xml version="1.0" encoding="UTF-8" standalone="no"?>
<!-- Created with Inkscape (http://www.inkscape.org/) -->

<svg
   xmlns:dc="http://purl.org/dc/elements/1.1/"
   xmlns:cc="http://creativecommons.org/ns#"
   xmlns:rdf="http://www.w3.org/1999/02/22-rdf-syntax-ns#"
   xmlns:svg="http://www.w3.org/2000/svg"
   xmlns="http://www.w3.org/2000/svg"
   xmlns:sodipodi="http://sodipodi.sourceforge.net/DTD/sodipodi-0.dtd"
   xmlns:inkscape="http://www.inkscape.org/namespaces/inkscape"
   width="184.75627mm"
   height="77.733688mm"
   viewBox="0 0 184.75627 77.733688"
   version="1.1"
   id="svg8"
   inkscape:version="0.92.4 (5da689c313, 2019-01-14)"
   sodipodi:docname="legend.svg">
  <defs
     id="defs2">
    <inkscape:path-effect
       effect="powerstroke"
       id="path-effect4609"
       is_visible="true"
       offset_points="31.94755,0.54365153 | 18.555449,-0.040059535 | 41,1.6783771"
       sort_points="true"
       interpolator_type="CubicBezierFit"
       interpolator_beta="0.16"
       start_linecap_type="peak"
       linejoin_type="extrp_arc"
       miter_limit="-1.1"
       end_linecap_type="butt" />
    <inkscape:path-effect
       effect="envelope"
       id="path-effect4607"
       is_visible="true"
       yy="true"
       xx="true"
       bendpath1="m -195.65454,133.29459 h 27.02079"
       bendpath2="M -168.63375,133.29459 V 162.5814"
       bendpath3="m -195.65454,162.5814 h 27.02079"
       bendpath4="M -195.65454,133.29459 V 162.5814" />
  </defs>
  <sodipodi:namedview
     id="base"
     pagecolor="#ffffff"
     bordercolor="#666666"
     borderopacity="1.0"
     inkscape:pageopacity="0.0"
     inkscape:pageshadow="2"
     inkscape:zoom="1.0076756"
     inkscape:cx="323.47594"
     inkscape:cy="84.573029"
     inkscape:document-units="mm"
     inkscape:current-layer="layer1"
     showgrid="false"
     objecttolerance="3"
     inkscape:window-width="1296"
     inkscape:window-height="704"
     inkscape:window-x="70"
     inkscape:window-y="27"
     inkscape:window-maximized="1"
     fit-margin-top="0"
     fit-margin-left="0"
     fit-margin-right="0"
     fit-margin-bottom="0" />
  <metadata
     id="metadata5">
    <rdf:RDF>
      <cc:Work
         rdf:about="">
        <dc:format>image/svg+xml</dc:format>
        <dc:type
           rdf:resource="http://purl.org/dc/dcmitype/StillImage" />
        <dc:title></dc:title>
      </cc:Work>
    </rdf:RDF>
  </metadata>
  <g
     inkscape:label="Layer 1"
     inkscape:groupmode="layer"
     id="layer1"
     transform="translate(-15.94575,-106.16161)">
    <path
       style="fill:#0000ff;stroke:#00bfff;stroke-width:1;stroke-linecap:butt;stroke-linejoin:miter;stroke-miterlimit:4;stroke-dasharray:none;stroke-opacity:1"
       d="M 56.427401,127.79662 34.052854,106.89197 16.65895,128.20563 41.892361,147.55941 16.897545,174.66961 50.912052,147.91517 24.008487,128.20563 35.032791,116.69135 Z"
       id="path10"
       inkscape:connector-curvature="0"
       sodipodi:nodetypes="ccccccccc"
       inkscape:export-xdpi="250"
       inkscape:export-ydpi="250" />
    <circle
       style="opacity:1;vector-effect:none;fill:#6c5d53;fill-opacity:1;stroke:#000000;stroke-width:0.5;stroke-linecap:butt;stroke-linejoin:miter;stroke-miterlimit:4;stroke-dasharray:none;stroke-dashoffset:0;stroke-opacity:1"
       id="path14"
       cx="72.495834"
       cy="116.25179"
       r="1.8898809"
       inkscape:export-xdpi="250"
       inkscape:export-ydpi="250" />
    <rect
       style="opacity:1;vector-effect:none;fill:#a05a2c;fill-opacity:1;stroke:#000000;stroke-width:0.5;stroke-linecap:butt;stroke-linejoin:miter;stroke-miterlimit:4;stroke-dasharray:none;stroke-dashoffset:0;stroke-opacity:1"
       id="rect12"
       width="3.4297841"
       height="11.514275"
       x="70.800537"
       y="116.38898"
       inkscape:export-xdpi="250"
       inkscape:export-ydpi="250" />
    <path
       style="fill:none;stroke:#000000;stroke-width:0.26458332px;stroke-linecap:butt;stroke-linejoin:miter;stroke-opacity:1"
       d="m 70.800536,116.38898 3.282796,3.1134"
       id="path823"
       inkscape:connector-curvature="0"
       inkscape:export-xdpi="250"
       inkscape:export-ydpi="250" />
    <path
       style="fill:none;stroke:#000000;stroke-width:0.26458332px;stroke-linecap:butt;stroke-linejoin:miter;stroke-opacity:1"
       d="m 70.62765,118.39925 3.282796,3.1134"
       id="path823-3"
       inkscape:connector-curvature="0"
       inkscape:export-xdpi="250"
       inkscape:export-ydpi="250" />
    <path
       style="fill:none;stroke:#000000;stroke-width:0.26458332px;stroke-linecap:butt;stroke-linejoin:miter;stroke-opacity:1"
       d="m 71.016473,121.17388 3.282796,3.1134"
       id="path823-6"
       inkscape:connector-curvature="0"
       inkscape:export-xdpi="250"
       inkscape:export-ydpi="250" />
    <path
       style="fill:none;stroke:#000000;stroke-width:0.26458332px;stroke-linecap:butt;stroke-linejoin:miter;stroke-opacity:1"
       d="m 70.843587,123.18415 3.282796,3.1134"
       id="path823-3-7"
       inkscape:connector-curvature="0"
       inkscape:export-xdpi="250"
       inkscape:export-ydpi="250" />
    <path
       style="fill:none;stroke:#000000;stroke-width:0.26458332px;stroke-linecap:butt;stroke-linejoin:miter;stroke-opacity:1"
       d="m 70.714089,125.25603 3.2828,3.1134"
       id="path823-5"
       inkscape:connector-curvature="0"
       inkscape:export-xdpi="250"
       inkscape:export-ydpi="250" />
    <path
       style="fill:#e3dedb;stroke:#000000;stroke-width:0.1;stroke-linecap:butt;stroke-linejoin:miter;stroke-opacity:1"
       d="m 70.800536,127.90325 -5.939822,42.24794 7.710713,12.24643 8.617857,-11.64167 -6.958962,-42.8527 z"
       id="path866"
       inkscape:connector-curvature="0"
       inkscape:export-xdpi="250"
       inkscape:export-ydpi="250" />
    <path
       style="opacity:1;vector-effect:none;fill:#d90000;fill-opacity:1;stroke:none;stroke-width:0.23641773;stroke-linecap:butt;stroke-linejoin:miter;stroke-miterlimit:4;stroke-dasharray:none;stroke-dashoffset:0;stroke-opacity:1"
       d="m 73.724857,181.91171 c 0.411755,1.01562 -0.493205,1.98359 -1.101599,1.98359 -0.608394,0 -1.548408,-0.97748 -1.101599,-1.98359 0.439207,-0.98901 0.493201,-1.24188 1.101599,-1.24188 0.608398,0 0.58004,0.25287 1.101599,1.24188"
       id="path4611"
       inkscape:connector-curvature="0"
       sodipodi:nodetypes="csssc"
       inkscape:export-xdpi="250"
       inkscape:export-ydpi="250" />
    <path
       style="fill:#c8beb7;stroke:#000000;stroke-width:0.1;stroke-linecap:butt;stroke-linejoin:miter;stroke-opacity:1"
       d="m 71.664284,128.12024 1.511906,-0.15119 6.954762,42.63571 -7.559525,10.12976 L 65.767856,170 Z"
       id="path872"
       inkscape:connector-curvature="0"
       sodipodi:nodetypes="cccccc"
       inkscape:export-xdpi="250"
       inkscape:export-ydpi="250" />
    <path
       style="fill:none;stroke:#6c5d53;stroke-width:1.5;stroke-linecap:butt;stroke-linejoin:miter;stroke-opacity:1"
       d="m 59.417857,132.35357 3.023809,-4.23333 20.561906,-0.15119 2.721427,4.83809"
       id="path16"
       inkscape:connector-curvature="0"
       sodipodi:nodetypes="cccc"
       inkscape:export-xdpi="250"
       inkscape:export-ydpi="250" />
    <path
       style="fill:none;stroke:#483e37;stroke-width:0.26458332px;stroke-linecap:butt;stroke-linejoin:miter;stroke-opacity:1"
       d="m 72.571427,180.73452 -0.151189,-52.76547 v 0 l -0.151191,0.15119"
       id="path868"
       inkscape:connector-curvature="0"
       sodipodi:nodetypes="cccc"
       inkscape:export-xdpi="250"
       inkscape:export-ydpi="250" />
    <path
       style="fill:#00ffff;stroke:#0fa9d4;stroke-width:0.26458332px;stroke-linecap:butt;stroke-linejoin:miter;stroke-opacity:1"
       d="m 100.6337,153.67143 22.7443,-4.28593 -18.603,-17.63669 -18.819928,20.2398 22.645698,21.06149 13.35735,-13.00896 -13.58742,7.23743 -14.586592,-15.67122 11.372152,-12.50937 11.24068,8.15114 z"
       id="path893"
       inkscape:connector-curvature="0"
       sodipodi:nodetypes="ccccccccccc"
       inkscape:export-xdpi="250"
       inkscape:export-ydpi="250" />
    <path
       style="fill:#ff004c;fill-opacity:1;stroke:#c20012;stroke-width:0.26458332px;stroke-linecap:butt;stroke-linejoin:miter;stroke-opacity:1"
       d="m 121.62945,131.36755 11.03033,4.31878 2.49793,35.72039 16.24969,-33.95869 11.37872,-6.51434 -28.46982,44.32511 z"
       id="path895"
       inkscape:connector-curvature="0"
       sodipodi:nodetypes="ccccccc"
       inkscape:export-xdpi="250"
       inkscape:export-ydpi="250" />
    <path
       sodipodi:type="spiral"
       style="fill:#ffab00;fill-opacity:1;fill-rule:nonzero;stroke:none;stroke-width:0.5"
       id="path897"
       sodipodi:cx="-183.23"
       sodipodi:cy="146.56548"
       sodipodi:expansion="3.72"
       sodipodi:revolution="10.268145"
       sodipodi:radius="16.835911"
       sodipodi:argument="-18.133492"
       sodipodi:t0="0.02222381"
       d="m -183.2066,146.598 c -0.005,0.004 -0.0109,0.006 -0.0178,0.007 -0.007,9.7e-4 -0.0128,8e-5 -0.0177,-0.001 -0.009,-0.003 -0.0145,-0.008 -0.0168,-0.0101 -0.003,-0.003 -0.005,-0.005 -0.006,-0.007 -6.8e-4,-0.001 -0.001,-0.002 -0.002,-0.003 -6e-4,-0.001 -0.001,-0.003 -0.002,-0.005 -0.002,-0.005 -0.002,-0.01 -0.002,-0.0149 2.3e-4,-0.005 0.001,-0.01 0.003,-0.0142 0.003,-0.008 0.008,-0.0133 0.012,-0.0163 0.004,-0.003 0.007,-0.005 0.0105,-0.007 0.003,-0.001 0.007,-0.003 0.0115,-0.003 0.01,-0.001 0.0188,7.6e-4 0.0267,0.005 0.007,0.004 0.0125,0.009 0.0157,0.0138 0.006,0.008 0.009,0.0179 0.009,0.0274 -4e-5,0.01 -0.003,0.0188 -0.008,0.0265 -0.005,0.007 -0.0107,0.0125 -0.0161,0.016 -0.0101,0.006 -0.0221,0.009 -0.0336,0.009 -0.0105,-0.001 -0.0202,-0.005 -0.0282,-0.0107 -0.008,-0.006 -0.0134,-0.0126 -0.0172,-0.0192 -0.007,-0.0126 -0.01,-0.0274 -0.008,-0.0415 0.002,-0.0119 0.007,-0.0226 0.0141,-0.0315 0.007,-0.009 0.0153,-0.0149 0.0235,-0.0192 0.0158,-0.008 0.0344,-0.0108 0.0519,-0.007 0.014,0.003 0.0263,0.01 0.0365,0.0184 0.01,0.009 0.0172,0.0189 0.0221,0.0293 0.01,0.0202 0.0119,0.0437 0.006,0.0655 -0.005,0.0168 -0.013,0.0314 -0.024,0.0433 -0.0109,0.0118 -0.0237,0.0203 -0.0369,0.0261 -0.0258,0.0113 -0.0557,0.0132 -0.0831,0.005 -0.0204,-0.006 -0.038,-0.0172 -0.0522,-0.0311 -0.0141,-0.0138 -0.0244,-0.03 -0.0312,-0.0467 -0.0135,-0.0329 -0.0149,-0.071 -0.003,-0.10556 0.009,-0.0249 0.0226,-0.0462 0.0401,-0.0634 0.0174,-0.017 0.0378,-0.0294 0.0591,-0.0376 0.042,-0.0161 0.0903,-0.0168 0.13367,-7.9e-4 0.0306,0.0114 0.0565,0.0293 0.0773,0.0514 0.0206,0.022 0.0357,0.0477 0.0455,0.0745 0.0194,0.0533 0.0191,0.11412 -0.002,0.16841 -0.0149,0.0374 -0.0375,0.069 -0.0652,0.0942 -0.0276,0.0251 -0.0597,0.0433 -0.0935,0.055 -0.067,0.0233 -0.1433,0.0217 -0.21083,-0.006 -0.0457,-0.0191 -0.0841,-0.0476 -0.11458,-0.0821 -0.0304,-0.0344 -0.0524,-0.0744 -0.0665,-0.11646 -0.0279,-0.0838 -0.0247,-0.17857 0.0117,-0.26204 0.0243,-0.0556 0.0597,-0.10208 0.10243,-0.13885 0.0426,-0.0367 0.0919,-0.0633 0.144,-0.08 0.10372,-0.0333 0.22072,-0.0282 0.32319,0.0183 0.13517,0.0611 0.22367,0.17543 0.2635,0.30328 0.0397,0.12741 0.032,0.27064 -0.0264,0.39555 -0.0756,0.16229 -0.21462,0.26844 -0.37023,0.31562 -0.15526,0.0471 -0.32926,0.0364 -0.48046,-0.0362 -0.19375,-0.0926 -0.32039,-0.26043 -0.37607,-0.44844 -0.0556,-0.18771 -0.0413,-0.39752 0.0479,-0.5793 0.11234,-0.23001 0.3136,-0.38028 0.53912,-0.4457 0.22527,-0.0653 0.47647,-0.0467 0.69357,0.0618 0.27153,0.13515 0.4489,0.37486 0.52542,0.64354 0.0765,0.26845 0.0528,0.56717 -0.0781,0.8248 -0.16134,0.31882 -0.44503,0.52708 -0.76304,0.6162 -0.3178,0.0891 -0.67078,0.0596 -0.97464,-0.0971 -0.3724,-0.19121 -0.61567,-0.52492 -0.71901,-0.89903 -0.10328,-0.37387 -0.0671,-0.78845 0.11906,-1.14479 0.22511,-0.43281 0.61541,-0.71558 1.05297,-0.83491 0.43726,-0.11925 0.92144,-0.0753 1.33706,0.14423 0.50061,0.26338 0.82775,0.71742 0.96497,1.22641 0.1371,0.50859 0.0844,1.07102 -0.17294,1.55328 -0.30638,0.57639 -0.83188,0.95317 -1.42095,1.11033 -0.58848,0.15701 -1.23854,0.0944 -1.79539,-0.20547 -0.66079,-0.35452 -1.09285,-0.95979 -1.27217,-1.63823 -0.17911,-0.67763 -0.10532,-1.42542 0.24216,-2.06545 0.40816,-0.75441 1.10219,-1.24787 1.88002,-1.45171 0.77672,-0.20355 1.63309,-0.11725 2.36553,0.28337 0.85793,0.46772 1.41929,1.26011 1.6502,2.14807 0.23051,0.88646 0.13023,1.86306 -0.32943,2.6978 -0.53363,0.97204 -1.43468,1.6083 -2.44428,1.86897 -1.0076,0.26016 -2.11688,0.14434 -3.0645,-0.38071 -1.09745,-0.60634 -1.81604,-1.62704 -2.10936,-2.77052 -0.29267,-1.14094 -0.15966,-2.39619 0.43758,-3.46799 0.68628,-1.2349 1.83839,-2.04375 3.12885,-2.37279 1.28722,-0.32822 2.70261,-0.17621 3.91064,0.50047 1.3851,0.77394 2.29265,2.06991 2.66066,3.52124 0.36698,1.44732 0.19408,3.0379 -0.56976,4.39495 -0.8698,1.54889 -2.32289,2.56405 -3.94986,2.97447 -1.45184,0.36624 -3.03243,0.24784 -4.43815,-0.3978 -0.16434,-0.0755 -0.32625,-0.15816 -0.48528,-0.24809 -1.731,-0.97676 -2.85967,-2.60408 -3.31346,-4.41744 -0.4547,-1.81693 -0.228,-3.80462 0.73417,-5.49411 1.09174,-1.92158 2.9044,-3.1728 4.92158,-3.67334 2.02131,-0.50157 4.22977,-0.24508 6.10508,0.82885 2.12531,1.21416 3.50837,3.22468 4.05962,5.46038 0.55241,2.24039 0.26464,4.686 -0.92906,6.7613 -1.34509,2.34406 -3.56774,3.86936 -6.03847,4.47574 -2.47594,0.60765 -5.17706,0.28686 -7.46826,-1.03561 -2.57959,-1.48561 -4.25872,-3.93637 -4.92506,-6.66048 -0.66772,-2.72978 -0.31196,-5.70675 1.14933,-8.23146 1.63682,-2.83379 4.33345,-4.67946 7.33111,-5.41104 3.00374,-0.73306 6.27893,-0.34011 9.05653,1.2711 3.10848,1.79982 5.13455,4.76184 5.93708,8.0551 0.80409,3.29968 0.3715,6.89751 -1.4018,9.94912 -1.97574,3.4055 -5.22446,5.62702 -8.83725,6.50664 -3.61947,0.88124 -7.56641,0.40628 -10.91495,-1.54235 -1.07908,-0.6713 -2.06939,-1.47641 -2.94336,-2.38643 l -2.34271,2.40406 c 1.13264,1.0454 2.39347,1.94365 3.74413,2.66761 4.10081,2.32897 8.86434,2.83046 13.17494,1.72917 4.31703,-1.10293 8.21794,-3.82335 10.56824,-7.97708 2.11346,-3.73979 2.56257,-8.07988 1.55329,-12.00361 -1.01085,-3.92986 -3.49358,-7.47667 -7.27941,-9.60846 -3.39937,-1.91145 -7.34089,-2.3123 -10.9011,-1.39038 -3.56597,0.92341 -6.7804,3.18184 -8.7077,6.62124 -1.72287,3.07949 -2.07953,6.64717 -1.24032,9.86704 0.84061,3.22519 2.88809,6.1289 6.00251,7.86565 2.78007,1.5476 5.99851,1.8641 8.90105,1.10294 2.90739,-0.76243 5.52194,-2.61227 7.08205,-5.42316 1.38555,-2.50107 1.66585,-5.39477 0.9781,-8.00286 -0.6889,-2.61245 -2.35442,-4.95938 -4.88327,-6.35668 -2.24241,-1.23662 -4.83576,-1.4846 -7.17218,-0.86561 -2.34024,0.62 -4.44105,2.1145 -5.68934,4.38286 -1.10076,2.00412 -1.32024,4.32145 -0.76532,6.40886 0.55579,2.0907 1.8926,3.96687 3.9221,5.07991 0.18739,0.10259 0.37788,0.19656 0.5709,0.28202 1.6498,0.73046 3.47934,0.83714 5.14138,0.39339 1.86794,-0.49872 3.53604,-1.69531 4.5219,-3.5033 0.86625,-1.59168 1.03227,-3.42755 0.58919,-5.07512 -0.44592,-1.65808 -1.51107,-3.13706 -3.11906,-4.00837 -1.4092,-0.76201 -3.0335,-0.90577 -4.49009,-0.51103 -1.46551,0.39715 -2.77108,1.34138 -3.53762,2.76551 -0.66702,1.24205 -0.79071,2.67266 -0.44051,3.95452 0.35225,1.28937 1.18557,2.43645 2.44116,3.10745 1.08939,0.58077 2.34327,0.68646 3.46583,0.37718 1.12878,-0.31101 2.13148,-1.04293 2.71571,-2.14455 0.50273,-0.95044 0.59237,-2.04363 0.32054,-3.02143 -0.27325,-0.9829 -0.91275,-1.85454 -1.87414,-2.36024 -0.82449,-0.43245 -1.7721,-0.50784 -2.61887,-0.2702 -0.85088,0.23879 -1.60404,0.79439 -2.03898,1.62857 -0.36942,0.71074 -0.43224,1.52701 -0.2257,2.25567 0.20746,0.73189 0.68717,1.37837 1.40637,1.74983 0.60848,0.3132 1.30679,0.36501 1.92945,0.18664 0.62515,-0.17908 1.17603,-0.59043 1.49083,-1.2062 0.2633,-0.51696 0.30554,-1.10983 0.15259,-1.63783 -0.15348,-0.52985 -0.50355,-0.99548 -1.02668,-1.25998 -0.4355,-0.21931 -0.93462,-0.2533 -1.37854,-0.12318 -0.44521,0.1305 -0.83526,0.4259 -1.05537,0.8665 -0.18076,0.36341 -0.2077,0.77964 -0.098,1.14931 0.10997,0.3705 0.35687,0.69393 0.72434,0.87513 0.3,0.14723 0.64343,0.16824 0.94796,0.0767 0.30498,-0.0917 0.57009,-0.29585 0.71743,-0.59894 0.11832,-0.24462 0.13437,-0.52455 0.0588,-0.77235 -0.0756,-0.24792 -0.24229,-0.46235 -0.48907,-0.58048 -0.19664,-0.0936 -0.42163,-0.10561 -0.6204,-0.0441 -0.19864,0.0615 -0.3694,0.19558 -0.46255,0.39351 -0.0727,0.15543 -0.0815,0.3333 -0.0322,0.49009 0.0492,0.15647 0.1552,0.28995 0.3111,0.36197 0.12038,0.0553 0.25824,0.0614 0.37946,0.0228 0.12073,-0.0385 0.22274,-0.12058 0.27711,-0.24067 0.0409,-0.0909 0.0451,-0.1952 0.0155,-0.28663 -0.0294,-0.0908 -0.0912,-0.16657 -0.18115,-0.20639 -0.0665,-0.0293 -0.14294,-0.0321 -0.20976,-0.0101 -0.0331,0.0109 -0.0633,0.0277 -0.0885,0.0496 -0.0251,0.0218 -0.0457,0.0491 -0.0599,0.0818 -0.0201,0.0465 -0.0219,0.10031 -0.006,0.14713 0.008,0.0231 0.0194,0.0438 0.0344,0.061 0.0149,0.017 0.0335,0.0309 0.0561,0.0405 0.0305,0.013 0.0662,0.0141 0.097,0.004 0.0151,-0.005 0.0284,-0.0126 0.0392,-0.0221 0.0106,-0.009 0.0193,-0.021 0.0252,-0.0352 0.008,-0.0179 0.008,-0.0394 0.002,-0.0579 -0.003,-0.009 -0.007,-0.0163 -0.0122,-0.0222 -0.005,-0.006 -0.0111,-0.0104 -0.0188,-0.0136 -0.008,-0.004 -0.0191,-0.004 -0.0281,-0.002 -0.004,0.001 -0.007,0.003 -0.009,0.004 -0.002,0.002 -0.004,0.003 -0.005,0.006 -9.6e-4,6.6e-4 -0.002,0.005 -0.002,0.006 -1.3e-4,7.6e-4 -3.7e-4,6.6e-4 -0.001,2e-4 -0.001,-4.8e-4 -0.003,-0.001 -0.004,-9.2e-4 -0.004,-5.2e-4 -0.006,7.6e-4 -0.009,0.003 -0.002,0.001 -0.004,0.003 -0.006,0.006 -0.002,0.003 -0.004,0.007 -0.005,0.0105 -0.001,0.007 2.2e-4,0.0129 0.003,0.0186 0.002,0.003 0.005,0.007 0.009,0.0102 0.004,0.003 0.01,0.006 0.0154,0.007 0.008,0.001 0.0168,-3.4e-4 0.0241,-0.005 0.004,-0.002 0.008,-0.006 0.0124,-0.0109 0.004,-0.005 0.007,-0.0118 0.008,-0.0187 0.001,-0.009 -9.6e-4,-0.0183 -0.006,-0.0263 -0.003,-0.004 -0.007,-0.009 -0.0124,-0.0133 -0.006,-0.004 -0.0133,-0.007 -0.021,-0.008 -0.009,-6e-4 -0.0183,0.002 -0.0262,0.007 -0.004,0.003 -0.009,0.007 -0.0133,0.0135 -0.004,0.007 -0.007,0.0146 -0.007,0.0229 1.7e-4,0.009 0.003,0.0171 0.008,0.0244 0.003,0.004 0.008,0.009 0.0146,0.0127 0.007,0.004 0.0162,0.006 0.0251,0.005 0.004,-6.5e-4 0.008,-0.002 0.011,-0.003 0.003,-0.001 0.006,-0.003 0.01,-0.006 0.003,-0.003 0.008,-0.008 0.0116,-0.0159 0.002,-0.004 0.003,-0.009 0.003,-0.014 2.3e-4,-0.005 -5.5e-4,-0.0102 -0.002,-0.0147 -7.6e-4,-0.002 -0.002,-0.004 -0.002,-0.005 -6.3e-4,-0.001 -0.001,-0.002 -0.002,-0.003 -0.001,-0.002 -0.003,-0.005 -0.006,-0.007 -0.002,-0.002 -0.008,-0.007 -0.0167,-0.0101 -0.005,-0.001 -0.0109,-0.002 -0.0176,-0.001 -0.007,9.8e-4 -0.0129,0.004 -0.0178,0.007 l 0.0559,0.009 z"
       transform="matrix(-1.1712531,0,0,1.1712531,-29.830915,-22.165372)"
       inkscape:path-effect="#path-effect4609"
       inkscape:export-xdpi="250"
       inkscape:export-ydpi="250" />
  </g>
</svg>
